<svg width="41" height="40" viewBox="0 0 41 40" fill="none" xmlns="http://www.w3.org/2000/svg">
<path d="M20.4987 35L20.3319 34.7499C19.1742 33.0133 18.5953 32.145 17.8305 31.5164C17.1535 30.9599 16.3733 30.5423 15.5347 30.2877C14.5874 30 13.5439 30 11.4567 30H9.16536C7.29852 30 6.3651 30 5.65206 29.6367C5.02486 29.3171 4.51492 28.8072 4.19534 28.18C3.83203 27.4669 3.83203 26.5335 3.83203 24.6667V10.3333C3.83203 8.46649 3.83203 7.53307 4.19534 6.82003C4.51492 6.19282 5.02486 5.68289 5.65206 5.36331C6.3651 5 7.29852 5 9.16536 5H9.83203C13.5657 5 15.4326 5 16.8586 5.72662C18.113 6.36578 19.1329 7.38565 19.7721 8.64006C20.4987 10.0661 20.4987 11.933 20.4987 15.6667M20.4987 35V15.6667M20.4987 35L20.6655 34.7499C21.8232 33.0133 22.4021 32.145 23.1669 31.5164C23.8439 30.9599 24.6241 30.5423 25.4627 30.2877C26.4099 30 27.4535 30 29.5407 30H31.832C33.6989 30 34.6323 30 35.3453 29.6367C35.9725 29.3171 36.4825 28.8072 36.8021 28.18C37.1654 27.4669 37.1654 26.5335 37.1654 24.6667V10.3333C37.1654 8.46649 37.1654 7.53307 36.8021 6.82003C36.4825 6.19282 35.9725 5.68289 35.3453 5.36331C34.6323 5 33.6989 5 31.832 5H31.1654C27.4317 5 25.5648 5 24.1388 5.72662C22.8843 6.36578 21.8645 7.38565 21.2253 8.64006C20.4987 10.0661 20.4987 11.933 20.4987 15.6667" stroke="black" stroke-opacity="0.15" stroke-width="2" stroke-linecap="round" stroke-linejoin="round"/>
</svg>
