<svg width="41" height="40" viewBox="0 0 41 40" fill="none" xmlns="http://www.w3.org/2000/svg">
<path d="M13 20H13.0167M20.5 20H20.5167M28 20H28.0167M20.5 35C28.7843 35 35.5 28.2843 35.5 20C35.5 11.7157 28.7843 5 20.5 5C12.2157 5 5.5 11.7157 5.5 20C5.5 21.9952 5.88956 23.8995 6.59677 25.6408C6.73212 25.9741 6.7998 26.1408 6.82999 26.2755C6.85953 26.4072 6.87033 26.5047 6.87034 26.6398C6.87036 26.7778 6.8453 26.9282 6.79518 27.2289L5.80688 33.1587C5.70338 33.7797 5.65164 34.0902 5.74793 34.3147C5.83222 34.5112 5.9888 34.6678 6.18531 34.7521C6.40982 34.8484 6.7203 34.7966 7.34127 34.6931L13.2711 33.7048C13.5718 33.6547 13.7222 33.6296 13.8602 33.6297C13.9953 33.6297 14.0928 33.6405 14.2245 33.67C14.3592 33.7002 14.5259 33.7679 14.8592 33.9032C16.6005 34.6104 18.5048 35 20.5 35ZM13.8333 20C13.8333 20.4602 13.4602 20.8333 13 20.8333C12.5398 20.8333 12.1667 20.4602 12.1667 20C12.1667 19.5398 12.5398 19.1667 13 19.1667C13.4602 19.1667 13.8333 19.5398 13.8333 20ZM21.3333 20C21.3333 20.4602 20.9602 20.8333 20.5 20.8333C20.0398 20.8333 19.6667 20.4602 19.6667 20C19.6667 19.5398 20.0398 19.1667 20.5 19.1667C20.9602 19.1667 21.3333 19.5398 21.3333 20ZM28.8333 20C28.8333 20.4602 28.4602 20.8333 28 20.8333C27.5398 20.8333 27.1667 20.4602 27.1667 20C27.1667 19.5398 27.5398 19.1667 28 19.1667C28.4602 19.1667 28.8333 19.5398 28.8333 20Z" stroke="black" stroke-opacity="0.15" stroke-width="2" stroke-linecap="round" stroke-linejoin="round"/>
</svg>
