<svg style="color:#fff" width="25" height="25" viewBox="0 0 25 25" fill="none" xmlns="http://www.w3.org/2000/svg">
<path d="M11.3164 12.5C11.3164 12.7652 11.4218 13.0196 11.6093 13.2071C11.7968 13.3946 12.0512 13.5 12.3164 13.5C12.5816 13.5 12.836 13.3946 13.0235 13.2071C13.211 13.0196 13.3164 12.7652 13.3164 12.5C13.3164 12.2348 13.211 11.9804 13.0235 11.7929C12.836 11.6054 12.5816 11.5 12.3164 11.5C12.0512 11.5 11.7968 11.6054 11.6093 11.7929C11.4218 11.9804 11.3164 12.2348 11.3164 12.5Z" stroke="currentColor" stroke-width="2" stroke-linecap="round" stroke-linejoin="round"/>
<path d="M11.3164 19.5C11.3164 19.7652 11.4218 20.0196 11.6093 20.2071C11.7968 20.3946 12.0512 20.5 12.3164 20.5C12.5816 20.5 12.836 20.3946 13.0235 20.2071C13.211 20.0196 13.3164 19.7652 13.3164 19.5C13.3164 19.2348 13.211 18.9804 13.0235 18.7929C12.836 18.6054 12.5816 18.5 12.3164 18.5C12.0512 18.5 11.7968 18.6054 11.6093 18.7929C11.4218 18.9804 11.3164 19.2348 11.3164 19.5Z" stroke="currentColor" stroke-width="2" stroke-linecap="round" stroke-linejoin="round"/>
<path d="M11.3164 5.5C11.3164 5.76522 11.4218 6.01957 11.6093 6.20711C11.7968 6.39464 12.0512 6.5 12.3164 6.5C12.5816 6.5 12.836 6.39464 13.0235 6.20711C13.211 6.01957 13.3164 5.76522 13.3164 5.5C13.3164 5.23478 13.211 4.98043 13.0235 4.79289C12.836 4.60536 12.5816 4.5 12.3164 4.5C12.0512 4.5 11.7968 4.60536 11.6093 4.79289C11.4218 4.98043 11.3164 5.23478 11.3164 5.5Z" stroke="currentColor" stroke-width="2" stroke-linecap="round" stroke-linejoin="round"/>
</svg>
