<svg width="22" height="22" viewBox="0 0 22 22" fill="none" xmlns="http://www.w3.org/2000/svg">
<path d="M7.79036 17.4173H7.33203C3.66536 17.4173 1.83203 16.5007 1.83203 11.9173V7.33398C1.83203 3.66732 3.66536 1.83398 7.33203 1.83398H14.6654C18.332 1.83398 20.1654 3.66732 20.1654 7.33398V11.9173C20.1654 15.584 18.332 17.4173 14.6654 17.4173H14.207C13.9229 17.4173 13.6479 17.5548 13.4737 17.784L12.0987 19.6173C11.4937 20.424 10.5037 20.424 9.8987 19.6173L8.5237 17.784C8.37703 17.5823 8.03786 17.4173 7.79036 17.4173Z" stroke="black" stroke-opacity="0.33" stroke-miterlimit="10" stroke-linecap="round" stroke-linejoin="round"/>
<path d="M6.41797 7.33398H15.5846" stroke="black" stroke-opacity="0.33" stroke-linecap="round" stroke-linejoin="round"/>
<path d="M6.41797 11.916H11.918" stroke="black" stroke-opacity="0.33" stroke-linecap="round" stroke-linejoin="round"/>
</svg>
