<svg width="24" height="25" viewBox="0 0 24 25" fill="none" xmlns="http://www.w3.org/2000/svg">
<path d="M14 5.5C14 4.675 13.325 4 12.5 4C11.675 4 11 4.675 11 5.5C11 6.325 11.675 7 12.5 7C13.325 7 14 6.325 14 5.5Z" fill="black" fill-opacity="0.33"/>
<path d="M14 19.5C14 18.675 13.325 18 12.5 18C11.675 18 11 18.675 11 19.5C11 20.325 11.675 21 12.5 21C13.325 21 14 20.325 14 19.5Z" fill="black" fill-opacity="0.33"/>
<path d="M14 12.5C14 11.675 13.325 11 12.5 11C11.675 11 11 11.675 11 12.5C11 13.325 11.675 14 12.5 14C13.325 14 14 13.325 14 12.5Z" fill="black" fill-opacity="0.33"/>
</svg>
