<svg width="50" height="50" viewBox="0 0 50 50" fill="none" xmlns="http://www.w3.org/2000/svg">
<path d="M33.2523 13.474L33.2526 13.4742C33.8821 13.9628 34.25 14.7145 34.25 15.5106V24.5023C34.25 24.9656 34.0658 25.4101 33.7377 25.7379C33.4095 26.0657 32.9644 26.25 32.5 26.25H17.5C17.0356 26.25 16.5905 26.0657 16.2623 25.7379C15.9342 25.4101 15.75 24.9656 15.75 24.5023L15.75 15.5106L15.75 15.5103C15.7498 15.1175 15.8395 14.7299 16.0121 14.377C16.1848 14.0241 16.4359 13.7153 16.7464 13.474L23.4139 8.29382L23.414 8.29373C23.8674 7.94137 24.4254 7.75 25 7.75C25.5746 7.75 26.1326 7.94137 26.586 8.29373L26.5861 8.29378L33.2523 13.474Z" stroke="#222222" stroke-width="1.5" stroke-linecap="round" stroke-linejoin="round"/>
<path d="M29.957 20.7373C27.1945 22.402 22.717 22.402 19.957 20.7373" stroke="#222222" stroke-width="1.5" stroke-linecap="round" stroke-linejoin="round"/>
<path d="M13.755 38.679H17.004V39.453H13.755V38.679ZM13.845 42H12.945V35.7H17.391V36.483H13.845V42ZM19.4769 38.418H22.7169V39.183H19.4769V38.418ZM19.5579 41.217H23.2299V42H18.6579V35.7H23.1039V36.483H19.5579V41.217ZM25.5062 38.418H28.7462V39.183H25.5062V38.418ZM25.5872 41.217H29.2592V42H24.6872V35.7H29.1332V36.483H25.5872V41.217ZM30.7165 42V35.7H33.3715C34.0435 35.7 34.6345 35.832 35.1445 36.096C35.6605 36.36 36.0595 36.729 36.3415 37.203C36.6295 37.677 36.7735 38.226 36.7735 38.85C36.7735 39.474 36.6295 40.023 36.3415 40.497C36.0595 40.971 35.6605 41.34 35.1445 41.604C34.6345 41.868 34.0435 42 33.3715 42H30.7165ZM31.6165 41.217H33.3175C33.8395 41.217 34.2895 41.118 34.6675 40.92C35.0515 40.722 35.3485 40.446 35.5585 40.092C35.7685 39.732 35.8735 39.318 35.8735 38.85C35.8735 38.376 35.7685 37.962 35.5585 37.608C35.3485 37.254 35.0515 36.978 34.6675 36.78C34.2895 36.582 33.8395 36.483 33.3175 36.483H31.6165V41.217Z" fill="black" fill-opacity="0.87"/>
</svg>
