<svg width="50" height="50" viewBox="0 0 50 50" fill="none" xmlns="http://www.w3.org/2000/svg">
<mask id="path-1-inside-1_611_1635" fill="white">
<path fill-rule="evenodd" clip-rule="evenodd" d="M27.0463 7.70156L33.7125 12.8818C34.525 13.5125 35 14.4828 35 15.5106V24.5023C35 25.1647 34.7366 25.8 34.2678 26.2684C33.7989 26.7369 33.163 27 32.5 27H17.5C16.837 27 16.2011 26.7369 15.7322 26.2684C15.2634 25.8 15 25.1647 15 24.5023V15.5106C14.9998 15.0035 15.1155 14.503 15.3384 14.0474C15.5614 13.5918 15.8856 13.1931 16.2863 12.8818L22.9538 7.70156C23.5388 7.24687 24.2588 7 25 7C25.7412 7 26.4612 7.24687 27.0463 7.70156ZM30.3441 21.3797C30.6989 21.1659 30.8132 20.705 30.5994 20.3502C30.3856 19.9954 29.9247 19.8811 29.5699 20.0949C28.3319 20.841 26.6638 21.2358 24.9561 21.2358C23.2483 21.2358 21.581 20.841 20.3444 20.0951C19.9897 19.8811 19.5287 19.9953 19.3148 20.3499C19.1009 20.7046 19.215 21.1656 19.5697 21.3795C21.093 22.2984 23.0445 22.7358 24.9561 22.7358C26.8677 22.7358 28.8197 22.2983 30.3441 21.3797Z"/>
</mask>
<path fill-rule="evenodd" clip-rule="evenodd" d="M27.0463 7.70156L33.7125 12.8818C34.525 13.5125 35 14.4828 35 15.5106V24.5023C35 25.1647 34.7366 25.8 34.2678 26.2684C33.7989 26.7369 33.163 27 32.5 27H17.5C16.837 27 16.2011 26.7369 15.7322 26.2684C15.2634 25.8 15 25.1647 15 24.5023V15.5106C14.9998 15.0035 15.1155 14.503 15.3384 14.0474C15.5614 13.5918 15.8856 13.1931 16.2863 12.8818L22.9538 7.70156C23.5388 7.24687 24.2588 7 25 7C25.7412 7 26.4612 7.24687 27.0463 7.70156ZM30.3441 21.3797C30.6989 21.1659 30.8132 20.705 30.5994 20.3502C30.3856 19.9954 29.9247 19.8811 29.5699 20.0949C28.3319 20.841 26.6638 21.2358 24.9561 21.2358C23.2483 21.2358 21.581 20.841 20.3444 20.0951C19.9897 19.8811 19.5287 19.9953 19.3148 20.3499C19.1009 20.7046 19.215 21.1656 19.5697 21.3795C21.093 22.2984 23.0445 22.7358 24.9561 22.7358C26.8677 22.7358 28.8197 22.2983 30.3441 21.3797Z" fill="#222222"/>
<path d="M33.7125 12.8818L32.7921 14.0662L32.7927 14.0667L33.7125 12.8818ZM27.0463 7.70156L26.1257 8.8859L26.1259 8.88599L27.0463 7.70156ZM34.2678 26.2684L33.2076 25.2073L33.2076 25.2073L34.2678 26.2684ZM15.7322 26.2684L14.6721 27.3296H14.6721L15.7322 26.2684ZM15 15.5106H16.5L16.5 15.5099L15 15.5106ZM16.2863 12.8818L15.366 11.6973L15.366 11.6973L16.2863 12.8818ZM22.9538 7.70156L23.874 8.88608L23.8743 8.8859L22.9538 7.70156ZM30.5994 20.3502L29.3147 21.1244L29.3147 21.1244L30.5994 20.3502ZM30.3441 21.3797L29.5699 20.0949L29.5699 20.0949L30.3441 21.3797ZM29.5699 20.0949L30.3441 21.3797H30.3441L29.5699 20.0949ZM20.3444 20.0951L19.5697 21.3795H19.5697L20.3444 20.0951ZM19.5697 21.3795L20.3444 20.0951L20.3444 20.0951L19.5697 21.3795ZM34.6329 11.6974L27.9666 6.51714L26.1259 8.88599L32.7921 14.0662L34.6329 11.6974ZM36.5 15.5106C36.5 14.0194 35.8108 12.6117 34.6322 11.6969L32.7927 14.0667C33.2392 14.4132 33.5 14.9462 33.5 15.5106H36.5ZM36.5 24.5023V15.5106H33.5V24.5023H36.5ZM35.3279 27.3296C36.0782 26.58 36.5 25.563 36.5 24.5023H33.5C33.5 24.7665 33.395 25.0201 33.2076 25.2073L35.3279 27.3296ZM32.5 28.5C33.5604 28.5 34.5777 28.0792 35.3279 27.3296L33.2076 25.2073C33.0202 25.3946 32.7657 25.5 32.5 25.5V28.5ZM17.5 28.5H32.5V25.5H17.5V28.5ZM14.6721 27.3296C15.4223 28.0792 16.4396 28.5 17.5 28.5V25.5C17.2343 25.5 16.9798 25.3946 16.7924 25.2073L14.6721 27.3296ZM13.5 24.5023C13.5 25.563 13.9218 26.58 14.6721 27.3296L16.7924 25.2073C16.605 25.0201 16.5 24.7665 16.5 24.5023H13.5ZM13.5 15.5106V24.5023H16.5V15.5106H13.5ZM13.9911 13.3881C13.6676 14.0492 13.4997 14.7754 13.5 15.5113L16.5 15.5099C16.4999 15.2316 16.5634 14.9568 16.6858 14.7066L13.9911 13.3881ZM15.366 11.6973C14.7848 12.1488 14.3145 12.7271 13.9911 13.3881L16.6858 14.7066C16.8082 14.4565 16.9863 14.2374 17.2065 14.0663L15.366 11.6973ZM22.0335 6.51705L15.366 11.6973L17.2065 14.0663L23.874 8.88608L22.0335 6.51705ZM25 5.5C23.9255 5.5 22.8816 5.85786 22.0332 6.51723L23.8743 8.8859C24.1959 8.63588 24.5921 8.5 25 8.5V5.5ZM27.9668 6.51723C27.1184 5.85786 26.0745 5.5 25 5.5V8.5C25.4079 8.5 25.8041 8.63588 26.1257 8.8859L27.9668 6.51723ZM29.3147 21.1244C29.1009 20.7696 29.2152 20.3087 29.5699 20.0949L31.1183 22.6644C32.1827 22.0231 32.5255 20.6403 31.8842 19.576L29.3147 21.1244ZM30.3441 21.3797C29.9894 21.5935 29.5284 21.4792 29.3147 21.1244L31.8842 19.576C31.2428 18.5117 29.86 18.1688 28.7957 18.8102L30.3441 21.3797ZM24.9561 22.7358C26.8678 22.7358 28.8198 22.2983 30.3441 21.3797L28.7957 18.8102C27.844 19.3837 26.4598 19.7358 24.9561 19.7358V22.7358ZM19.5697 21.3795C21.0929 22.2983 23.0444 22.7358 24.9561 22.7358V19.7358C23.4523 19.7358 22.0691 19.3836 21.1191 18.8106L19.5697 21.3795ZM20.5993 21.1247C20.3853 21.4794 19.9244 21.5935 19.5697 21.3795L21.1191 18.8106C20.055 18.1688 18.6722 18.5111 18.0304 19.5752L20.5993 21.1247ZM20.3444 20.0951C20.6991 20.309 20.8132 20.77 20.5993 21.1247L18.0304 19.5752C17.3886 20.6393 17.7309 22.0222 18.7949 22.664L20.3444 20.0951ZM24.9561 21.2358C23.2482 21.2358 21.581 20.8409 20.3444 20.0951L18.7949 22.664C20.6051 23.7558 22.8408 24.2358 24.9561 24.2358V21.2358ZM29.5699 20.0949C28.332 20.8409 26.664 21.2358 24.9561 21.2358V24.2358C27.0715 24.2358 29.3074 23.7558 31.1183 22.6644L29.5699 20.0949Z" fill="#222222" mask="url(#path-1-inside-1_611_1635)"/>
<path d="M14.097 38.535H17.121V39.705H14.097V38.535ZM14.205 42H12.747V35.7H17.508V36.87H14.205V42ZM19.836 38.238H22.869V39.372H19.836V38.238ZM19.944 40.83H23.373V42H18.495V35.7H23.256V36.87H19.944V40.83ZM25.8741 38.238H28.9071V39.372H25.8741V38.238ZM25.9821 40.83H29.4111V42H24.5331V35.7H29.2941V36.87H25.9821V40.83ZM30.5712 42V35.7H33.4332C34.1172 35.7 34.7202 35.832 35.2422 36.096C35.7642 36.354 36.1722 36.717 36.4662 37.185C36.7602 37.653 36.9072 38.208 36.9072 38.85C36.9072 39.486 36.7602 40.041 36.4662 40.515C36.1722 40.983 35.7642 41.349 35.2422 41.613C34.7202 41.871 34.1172 42 33.4332 42H30.5712ZM32.0292 40.803H33.3612C33.7812 40.803 34.1442 40.725 34.4502 40.569C34.7622 40.407 35.0022 40.179 35.1702 39.885C35.3442 39.591 35.4312 39.246 35.4312 38.85C35.4312 38.448 35.3442 38.103 35.1702 37.815C35.0022 37.521 34.7622 37.296 34.4502 37.14C34.1442 36.978 33.7812 36.897 33.3612 36.897H32.0292V40.803Z" fill="black" fill-opacity="0.87"/>
</svg>
