<svg width="50" height="50" viewBox="0 0 50 50" fill="none" xmlns="http://www.w3.org/2000/svg">
<path d="M25.1605 15.87C25.0605 15.86 24.9405 15.86 24.8305 15.87C22.4505 15.79 20.5605 13.84 20.5605 11.44C20.5605 8.99 22.5405 7 25.0005 7C27.4505 7 29.4405 8.99 29.4405 11.44C29.4305 13.84 27.5405 15.79 25.1605 15.87Z" fill="#222222" stroke="#222222" stroke-width="1.5" stroke-linecap="round" stroke-linejoin="round"/>
<path d="M20.1607 19.56C17.7407 21.18 17.7407 23.82 20.1607 25.43C22.9107 27.27 27.4207 27.27 30.1707 25.43C32.5907 23.81 32.5907 21.17 30.1707 19.56C27.4307 17.73 22.9207 17.73 20.1607 19.56Z" fill="#222222" stroke="#222222" stroke-width="1.5" stroke-linecap="round" stroke-linejoin="round"/>
<path d="M25.348 42H23.98L23.971 38.22L22.117 41.334H21.46L19.615 38.301V42H18.247V35.7H19.453L21.811 39.615L24.133 35.7H25.33L25.348 42ZM32.3147 35.7L29.8667 39.768V42H28.4087V39.75L25.9697 35.7H27.5177L29.2007 38.499L30.8837 35.7H32.3147Z" fill="black" fill-opacity="0.87"/>
</svg>
