<svg width="50" height="50" viewBox="0 0 50 50" fill="none" xmlns="http://www.w3.org/2000/svg">
<path d="M25.1605 15.87C25.0605 15.86 24.9405 15.86 24.8305 15.87C22.4505 15.79 20.5605 13.84 20.5605 11.44C20.5605 8.99 22.5405 7 25.0005 7C27.4505 7 29.4405 8.99 29.4405 11.44C29.4305 13.84 27.5405 15.79 25.1605 15.87Z" stroke="#222222" stroke-width="1.5" stroke-linecap="round" stroke-linejoin="round"/>
<path d="M20.1607 19.56C17.7407 21.18 17.7407 23.82 20.1607 25.43C22.9107 27.27 27.4207 27.27 30.1707 25.43C32.5907 23.81 32.5907 21.17 30.1707 19.56C27.4307 17.73 22.9207 17.73 20.1607 19.56Z" stroke="#222222" stroke-width="1.5" stroke-linecap="round" stroke-linejoin="round"/>
<path d="M18.445 42V35.7H19.183L22.009 40.461H21.613L24.403 35.7H25.141L25.15 42H24.286L24.277 37.059H24.484L22 41.235H21.586L19.084 37.059H19.309V42H18.445ZM28.5617 42V39.588L28.7687 40.146L26.0597 35.7H27.0227L29.2997 39.453H28.7777L31.0637 35.7H31.9547L29.2547 40.146L29.4527 39.588V42H28.5617Z" fill="black" fill-opacity="0.87"/>
</svg>
