<svg width="24" height="24" viewBox="0 0 24 24" fill="none" xmlns="http://www.w3.org/2000/svg">
<mask id="path-1-inside-1_611_2662" fill="white">
<path fill-rule="evenodd" clip-rule="evenodd" d="M14.0463 2.70156L20.7125 7.88178C21.525 8.51245 22 9.4828 22 10.5106V19.5023C22 20.1647 21.7366 20.8 21.2678 21.2684C20.7989 21.7369 20.163 22 19.5 22H4.5C3.83696 22 3.20107 21.7369 2.73223 21.2684C2.26339 20.8 2 20.1647 2 19.5023V10.5106C1.99976 10.0035 2.11552 9.503 2.33844 9.04739C2.56137 8.59179 2.88555 8.1931 3.28625 7.88178L9.95375 2.70156C10.5388 2.24687 11.2588 2 12 2C12.7412 2 13.4612 2.24687 14.0463 2.70156ZM17.3441 16.3797C17.6989 16.1659 17.8132 15.705 17.5994 15.3502C17.3856 14.9954 16.9247 14.8811 16.5699 15.0949C15.3319 15.841 13.6638 16.2358 11.9561 16.2358C10.2483 16.2358 8.58103 15.841 7.34439 15.0951C6.9897 14.8811 6.52874 14.9953 6.31481 15.3499C6.10087 15.7046 6.21498 16.1656 6.56967 16.3795C8.09303 17.2984 10.0445 17.7358 11.9561 17.7358C13.8677 17.7358 15.8197 17.2983 17.3441 16.3797Z"/>
</mask>
<path fill-rule="evenodd" clip-rule="evenodd" d="M14.0463 2.70156L20.7125 7.88178C21.525 8.51245 22 9.4828 22 10.5106V19.5023C22 20.1647 21.7366 20.8 21.2678 21.2684C20.7989 21.7369 20.163 22 19.5 22H4.5C3.83696 22 3.20107 21.7369 2.73223 21.2684C2.26339 20.8 2 20.1647 2 19.5023V10.5106C1.99976 10.0035 2.11552 9.503 2.33844 9.04739C2.56137 8.59179 2.88555 8.1931 3.28625 7.88178L9.95375 2.70156C10.5388 2.24687 11.2588 2 12 2C12.7412 2 13.4612 2.24687 14.0463 2.70156ZM17.3441 16.3797C17.6989 16.1659 17.8132 15.705 17.5994 15.3502C17.3856 14.9954 16.9247 14.8811 16.5699 15.0949C15.3319 15.841 13.6638 16.2358 11.9561 16.2358C10.2483 16.2358 8.58103 15.841 7.34439 15.0951C6.9897 14.8811 6.52874 14.9953 6.31481 15.3499C6.10087 15.7046 6.21498 16.1656 6.56967 16.3795C8.09303 17.2984 10.0445 17.7358 11.9561 17.7358C13.8677 17.7358 15.8197 17.2983 17.3441 16.3797Z" fill="#222222"/>
<path d="M20.7125 7.88178L19.7921 9.06621L19.7927 9.06671L20.7125 7.88178ZM14.0463 2.70156L13.1257 3.8859L13.1259 3.88599L14.0463 2.70156ZM21.2678 21.2684L20.2076 20.2073L20.2076 20.2073L21.2678 21.2684ZM2.73223 21.2684L1.67206 22.3296H1.67206L2.73223 21.2684ZM2 10.5106H3.5L3.5 10.5099L2 10.5106ZM3.28625 7.88178L2.36596 6.69727L2.36595 6.69728L3.28625 7.88178ZM9.95375 2.70156L10.874 3.88608L10.8743 3.8859L9.95375 2.70156ZM17.5994 15.3502L16.3147 16.1244L16.3147 16.1244L17.5994 15.3502ZM17.3441 16.3797L16.5699 15.0949L16.5699 15.0949L17.3441 16.3797ZM16.5699 15.0949L17.3441 16.3797L16.5699 15.0949ZM7.34439 15.0951L6.56967 16.3795H6.56967L7.34439 15.0951ZM6.56967 16.3795L7.34439 15.0951L7.34439 15.0951L6.56967 16.3795ZM21.6329 6.69735L14.9666 1.51714L13.1259 3.88599L19.7921 9.06621L21.6329 6.69735ZM23.5 10.5106C23.5 9.01939 22.8108 7.61166 21.6322 6.69685L19.7927 9.06671C20.2392 9.41324 20.5 9.94621 20.5 10.5106H23.5ZM23.5 19.5023V10.5106H20.5V19.5023H23.5ZM22.3279 22.3296C23.0782 21.58 23.5 20.563 23.5 19.5023H20.5C20.5 19.7665 20.395 20.0201 20.2076 20.2073L22.3279 22.3296ZM19.5 23.5C20.5604 23.5 21.5777 23.0792 22.3279 22.3296L20.2076 20.2073C20.0202 20.3946 19.7657 20.5 19.5 20.5V23.5ZM4.5 23.5H19.5V20.5H4.5V23.5ZM1.67206 22.3296C2.42232 23.0792 3.43958 23.5 4.5 23.5V20.5C4.23433 20.5 3.97983 20.3946 3.7924 20.2073L1.67206 22.3296ZM0.5 19.5023C0.5 20.563 0.921764 21.58 1.67206 22.3296L3.7924 20.2073C3.60502 20.0201 3.5 19.7665 3.5 19.5023H0.5ZM0.5 10.5106V19.5023H3.5V10.5106H0.5ZM0.99108 8.38814C0.667642 9.04918 0.499653 9.7754 0.5 10.5113L3.5 10.5099C3.49987 10.2316 3.5634 9.95682 3.68581 9.70664L0.99108 8.38814ZM2.36595 6.69728C1.78481 7.14879 1.31451 7.72711 0.99108 8.38814L3.68581 9.70664C3.80822 9.45646 3.9863 9.23741 4.20655 9.06629L2.36595 6.69728ZM9.03346 1.51705L2.36596 6.69727L4.20654 9.06629L10.874 3.88608L9.03346 1.51705ZM12 0.5C10.9255 0.5 9.88158 0.85786 9.03324 1.51723L10.8743 3.8859C11.1959 3.63588 11.5921 3.5 12 3.5V0.5ZM14.9668 1.51723C14.1184 0.85786 13.0745 0.5 12 0.5V3.5C12.4079 3.5 12.8041 3.63588 13.1257 3.8859L14.9668 1.51723ZM16.3147 16.1244C16.1009 15.7696 16.2152 15.3087 16.5699 15.0949L18.1183 17.6644C19.1827 17.0231 19.5255 15.6403 18.8842 14.576L16.3147 16.1244ZM17.3441 16.3797C16.9894 16.5935 16.5284 16.4792 16.3147 16.1244L18.8842 14.576C18.2428 13.5117 16.86 13.1688 15.7957 13.8102L17.3441 16.3797ZM11.9561 17.7358C13.8678 17.7358 15.8198 17.2983 17.3441 16.3797L15.7957 13.8102C14.844 14.3837 13.4598 14.7358 11.9561 14.7358V17.7358ZM6.56967 16.3795C8.09295 17.2983 10.0444 17.7358 11.9561 17.7358V14.7358C10.4523 14.7358 9.06911 14.3836 8.11912 13.8106L6.56967 16.3795ZM7.59926 16.1247C7.38532 16.4794 6.92436 16.5935 6.56967 16.3795L8.11912 13.8106C7.05505 13.1688 5.67216 13.5111 5.03036 14.5752L7.59926 16.1247ZM7.34439 15.0951C7.69908 15.309 7.81319 15.77 7.59926 16.1247L5.03036 14.5752C4.38856 15.6393 4.73087 17.0222 5.79495 17.664L7.34439 15.0951ZM11.9561 16.2358C10.2482 16.2358 8.58095 15.8409 7.34439 15.0951L5.79495 17.664C7.60512 18.7558 9.8408 19.2358 11.9561 19.2358V16.2358ZM16.5699 15.0949C15.332 15.8409 13.664 16.2358 11.9561 16.2358V19.2358C14.0715 19.2358 16.3074 18.7558 18.1183 17.6644L16.5699 15.0949Z" fill="#222222" mask="url(#path-1-inside-1_611_2662)"/>
</svg>
