<svg width="14" height="14" viewBox="0 0 14 14" fill="none" xmlns="http://www.w3.org/2000/svg">
<path d="M4.95768 11.0834H4.66602C2.33268 11.0834 1.16602 10.5001 1.16602 7.58342V4.66675C1.16602 2.33341 2.33268 1.16675 4.66602 1.16675H9.33268C11.666 1.16675 12.8327 2.33341 12.8327 4.66675V7.58342C12.8327 9.91675 11.666 11.0834 9.33268 11.0834H9.04102C8.86018 11.0834 8.68518 11.1709 8.57435 11.3167L7.69935 12.4834C7.31435 12.9967 6.68435 12.9967 6.29935 12.4834L5.42435 11.3167C5.33102 11.1884 5.11518 11.0834 4.95768 11.0834Z" stroke="black" stroke-opacity="0.4" stroke-miterlimit="10" stroke-linecap="round" stroke-linejoin="round"/>
<path d="M4.08398 4.66675H9.91732" stroke="black" stroke-opacity="0.4" stroke-linecap="round" stroke-linejoin="round"/>
<path d="M4.08398 7.58325H7.58398" stroke="black" stroke-opacity="0.4" stroke-linecap="round" stroke-linejoin="round"/>
</svg>
