<svg width="67" height="67" viewBox="0 0 67 67" fill="none" xmlns="http://www.w3.org/2000/svg">
<path d="M33.7778 30.195C33.5 30.1673 33.1667 30.1673 32.8611 30.195C26.25 29.9728 21 24.5562 21 17.8895C21 11.0839 26.5 5.55615 33.3333 5.55615C40.1389 5.55615 45.6667 11.0839 45.6667 17.8895C45.6389 24.5562 40.3889 29.9728 33.7778 30.195Z" fill="#CED3DC" stroke="#CED3DC" stroke-width="1.5" stroke-linecap="round" stroke-linejoin="round"/>
<path d="M19.8893 40.4438C13.1671 44.9438 13.1671 52.2772 19.8893 56.7494C27.5282 61.8605 40.056 61.8605 47.6949 56.7494C54.4171 52.2494 54.4171 44.9161 47.6949 40.4438C40.0838 35.3605 27.556 35.3605 19.8893 40.4438Z" fill="#CED3DC" stroke="#CED3DC" stroke-width="1.5" stroke-linecap="round" stroke-linejoin="round"/>
</svg>
