<svg width="36" height="36" viewBox="0 0 36 36" fill="none" xmlns="http://www.w3.org/2000/svg">
<path d="M0 0H18C27.9411 0 36 8.05888 36 18C36 27.9411 27.9411 36 18 36H0V0Z" fill="#ECF0F7"/>
<path d="M16.1605 16.87C16.0605 16.86 15.9405 16.86 15.8305 16.87C13.4505 16.79 11.5605 14.84 11.5605 12.44C11.5605 9.99 13.5405 8 16.0005 8C18.4505 8 20.4405 9.99 20.4405 12.44C20.4305 14.84 18.5405 16.79 16.1605 16.87Z" fill="#CED3DC" stroke="#CED3DC" stroke-linecap="round" stroke-linejoin="round"/>
<path d="M11.1607 20.56C8.7407 22.18 8.7407 24.82 11.1607 26.43C13.9107 28.27 18.4207 28.27 21.1707 26.43C23.5907 24.81 23.5907 22.17 21.1707 20.56C18.4307 18.73 13.9207 18.73 11.1607 20.56Z" fill="#CED3DC" stroke="#CED3DC" stroke-linecap="round" stroke-linejoin="round"/>
</svg>
