<svg width="24" height="24" viewBox="0 0 24 24" fill="none" xmlns="http://www.w3.org/2000/svg">
<path d="M20.2523 8.474L20.2526 8.47425C20.8821 8.96285 21.25 9.71451 21.25 10.5106V19.5023C21.25 19.9656 21.0658 20.4101 20.7377 20.7379C20.4095 21.0657 19.9644 21.25 19.5 21.25H4.5C4.03565 21.25 3.59045 21.0657 3.26232 20.7379C2.93421 20.4101 2.75 19.9656 2.75 19.5023L2.75 10.5106L2.75 10.5103C2.74981 10.1175 2.83946 9.72991 3.01213 9.37702C3.18479 9.02412 3.43593 8.71526 3.74639 8.47404L10.4139 3.29382L10.414 3.29373C10.8674 2.94137 11.4254 2.75 12 2.75C12.5746 2.75 13.1326 2.94137 13.586 3.29373L13.5861 3.29378L20.2523 8.474Z" stroke="#222222" stroke-width="1.5" stroke-linecap="round" stroke-linejoin="round"/>
<path d="M16.957 15.7373C14.1945 17.402 9.71703 17.402 6.95703 15.7373" stroke="#222222" stroke-width="1.5" stroke-linecap="round" stroke-linejoin="round"/>
</svg>
