<svg width="209" height="105" viewBox="0 0 209 105" fill="none" xmlns="http://www.w3.org/2000/svg">
<g clip-path="url(#clip0_872_17730)">
<path fill-rule="evenodd" clip-rule="evenodd" d="M129.399 19.5007C111.953 35.6234 86.763 39.7432 86.763 39.7432V39.7413C80.0538 40.9158 72.1953 40.8227 72.1953 36.9782C72.1953 32.5593 81.0067 26.2271 81.0067 26.2271V12.6733C81.0067 10.3213 80.1311 9.67873 79.286 9.05857C79.1256 8.9408 78.9662 8.82384 78.8141 8.69614C78.6383 8.54861 78.3102 8.37742 77.9096 8.1684C76.3096 7.33349 73.5528 5.89503 74.7218 2.95019C75.9831 -0.232755 80.4192 0.00294557 80.4192 0.00294557H116.951V0.00690692C122.28 0.143574 126.881 3.22749 129.211 7.70184C130.668 7.14923 132.456 6.73923 134.158 7.07C137.957 7.80681 134.596 14.9234 130.138 18.8055C129.906 19.0313 129.661 19.263 129.399 19.5007ZM120.578 21.2358C117.541 15.6899 111.688 11.9326 104.961 11.9326H104.963C95.1166 11.9326 87.1343 19.9801 87.1343 29.9072C87.1343 31.9612 87.4781 33.9339 88.1068 35.772C102.443 32.5871 114.993 25.2902 120.578 21.2358ZM122.791 30.1104L126.577 27.7059C131.974 30.5442 135.659 36.2367 135.659 42.7987C135.659 52.197 128.103 59.8147 118.781 59.8147H79.2528C76.7696 59.8147 74.7499 58.6302 74.3511 56.5406C73.9916 54.657 74.8678 53.3319 75.8914 52.5951C76.0497 52.4812 76.2358 52.3637 76.4397 52.2351C77.554 51.5322 79.196 50.4965 79.691 47.8811C79.797 47.3245 79.9071 46.2609 80.0171 44.8982C84.3294 44.8784 88.7184 44.2129 92.9463 43.1829C96.1152 46.1005 100.333 47.8811 104.964 47.8811C114.744 47.8811 122.683 39.9425 122.791 30.1104Z" fill="black" fill-opacity="0.87"/>
</g>
<path d="M5.13793 99C2.04793 99 0.00792968 96.57 0.57793 93.54L2.40793 83.43C2.97793 80.43 5.91793 77.97 8.97793 77.97H20.5879C21.2479 77.97 21.6679 78.51 21.5479 79.14L21.0079 82.26C20.8879 82.89 20.2579 83.4 19.5979 83.4H9.48793C9.09793 83.4 8.73793 83.73 8.64793 84.12L7.08793 92.82C6.99793 93.21 7.26793 93.51 7.65793 93.51H17.7679C18.4279 93.51 18.8479 94.05 18.7579 94.68L18.1579 97.86C18.0679 98.49 17.4379 99 16.7779 99H5.13793ZM41.7815 77.97C44.8415 77.97 46.9115 80.4 46.3715 83.43L44.5415 93.54C43.9715 96.57 41.0615 99 37.9715 99H25.8515C22.7915 99 20.7215 96.57 21.2615 93.54L23.0915 83.43C23.6615 80.4 26.5715 77.97 29.6615 77.97H41.7815ZM38.3015 92.82L39.8915 84.09C39.9515 83.7 39.6815 83.37 39.2915 83.37H30.1715C29.7815 83.37 29.4215 83.7 29.3315 84.09L27.7715 92.82C27.6815 93.21 27.9515 93.51 28.3415 93.51H37.4615C37.8515 93.51 38.2415 93.21 38.3015 92.82ZM55.5571 87.24C55.4071 87.03 55.0471 87.09 55.0171 87.33L53.0971 97.86C52.9771 98.49 52.3771 99 51.7171 99H47.7871C47.1271 99 46.6771 98.49 46.7971 97.86L50.1871 79.2C50.2771 78.54 50.9071 78.03 51.5671 78.03H56.5771C56.9371 78.03 57.2371 78.18 57.4171 78.45L63.3571 89.01C63.5072 89.22 63.8371 89.16 63.8971 88.92L65.6371 79.2C65.7571 78.54 66.3871 78.03 67.0471 78.03H70.9772C71.6371 78.03 72.0571 78.54 71.9672 79.2L68.5771 97.86C68.4571 98.49 67.8571 99 67.1971 99H62.8471C62.4871 99 62.1871 98.85 62.0071 98.61L55.5571 87.24ZM76.9446 99C73.8546 99 71.8146 96.57 72.3846 93.54L74.2146 83.43C74.7846 80.43 77.7246 77.97 80.7846 77.97H92.3946C93.0546 77.97 93.4746 78.51 93.3546 79.14L92.8146 82.26C92.6946 82.89 92.0646 83.4 91.4046 83.4H81.2946C80.9046 83.4 80.5446 83.73 80.4546 84.12L78.8946 92.82C78.8046 93.21 79.0746 93.51 79.4646 93.51H89.5746C90.2346 93.51 90.6546 94.05 90.5646 94.68L89.9646 97.86C89.8746 98.49 89.2446 99 88.5846 99H76.9446ZM93.5782 99C92.9182 99 92.4682 98.49 92.5882 97.86L95.9782 79.14C96.0982 78.51 96.7282 77.97 97.3582 77.97H115.058C115.448 77.97 115.718 78.3 115.628 78.69L114.938 82.65C114.848 83.04 114.488 83.34 114.098 83.34H101.798C101.678 83.34 101.528 83.46 101.528 83.58L101.138 85.74C101.108 85.86 101.198 85.98 101.318 85.98H111.218C111.608 85.98 111.848 86.28 111.788 86.67L111.128 90.33C111.068 90.69 110.678 91.02 110.288 91.02H100.418C100.268 91.02 100.148 91.11 100.118 91.26L99.7582 93.27C99.7282 93.39 99.8182 93.51 99.9682 93.51H112.238C112.658 93.51 112.898 93.81 112.838 94.2L112.088 98.31C112.028 98.7 111.668 99 111.248 99H93.5782ZM139.272 83.49L138.402 88.26C137.862 91.29 134.922 93.72 131.832 93.72L122.262 93.75C122.112 93.75 121.992 93.84 121.962 93.99L121.272 97.86C121.152 98.49 120.522 99 119.892 99H115.932C115.272 99 114.822 98.49 114.942 97.86L118.332 79.17C118.452 78.54 119.052 78 119.712 78H134.682C137.772 78 139.812 80.46 139.272 83.49ZM132.762 84.3C132.882 83.73 132.492 83.25 131.892 83.25H124.152C124.032 83.25 123.882 83.37 123.882 83.49L123.012 88.26C122.982 88.38 123.072 88.47 123.222 88.47H130.962C131.532 88.47 132.102 88.02 132.192 87.45L132.762 84.3ZM160.949 78.03C161.609 78.03 162.059 78.54 161.939 79.2L161.399 82.2C161.279 82.86 160.649 83.37 159.989 83.37H154.199C154.079 83.37 153.959 83.49 153.929 83.61L151.349 97.86C151.229 98.49 150.599 99 149.939 99H145.979C145.349 99 144.899 98.49 145.019 97.86L147.599 83.61C147.629 83.46 147.539 83.37 147.389 83.37H141.599C140.939 83.37 140.519 82.86 140.639 82.2L141.179 79.2C141.299 78.54 141.899 78.03 142.559 78.03H160.949ZM161.459 99.03C160.799 99 160.349 98.49 160.469 97.86L163.859 79.17C163.979 78.54 164.579 78 165.239 78H180.209C183.299 78 185.339 80.46 184.799 83.49L184.499 85.17C184.469 85.2 184.469 85.26 184.469 85.32C184.259 86.4 183.659 87.39 182.849 88.14C182.909 88.05 183.599 89.28 183.629 89.4C183.839 89.88 183.899 90.33 183.899 90.78C183.869 91.17 183.839 91.59 183.749 92.01L183.419 93.87C182.909 96.72 180.149 99.03 177.239 99.03H161.459ZM168.029 91.14L167.609 93.33C167.609 93.45 167.699 93.57 167.819 93.57H176.099C176.669 93.57 177.239 93.09 177.329 92.52L177.449 91.95C177.539 91.38 177.149 90.9 176.579 90.9H168.299C168.179 90.9 168.029 91.02 168.029 91.14ZM169.409 83.49L168.989 85.68C168.989 85.8 169.079 85.92 169.199 85.92H176.939C177.539 85.92 178.079 85.44 178.199 84.87L178.289 84.3C178.409 83.73 178.019 83.25 177.419 83.25H169.679C169.559 83.25 169.409 83.37 169.409 83.49ZM186.479 99C185.819 99 185.369 98.49 185.489 97.86L188.879 79.14C188.999 78.51 189.629 77.97 190.259 77.97H207.959C208.349 77.97 208.619 78.3 208.529 78.69L207.839 82.65C207.749 83.04 207.389 83.34 206.999 83.34H194.699C194.579 83.34 194.429 83.46 194.429 83.58L194.039 85.74C194.009 85.86 194.099 85.98 194.219 85.98H204.119C204.509 85.98 204.749 86.28 204.689 86.67L204.029 90.33C203.969 90.69 203.579 91.02 203.189 91.02H193.319C193.169 91.02 193.049 91.11 193.019 91.26L192.659 93.27C192.629 93.39 192.719 93.51 192.869 93.51H205.139C205.559 93.51 205.799 93.81 205.739 94.2L204.989 98.31C204.929 98.7 204.569 99 204.149 99H186.479Z" fill="black" fill-opacity="0.87"/>
<defs>
<clipPath id="clip0_872_17730">
<rect width="63.6126" height="60" fill="white" transform="translate(72.1953)"/>
</clipPath>
</defs>
</svg>
