<svg width="176" height="24" viewBox="0 0 176 24" fill="none" xmlns="http://www.w3.org/2000/svg">
<path d="M21.6423 11.1299L20.1355 12.0804C20.0925 15.967 16.9329 19.1051 13.0405 19.1051C11.1976 19.1051 9.51885 18.4012 8.25764 17.2479C6.57498 17.6551 4.82821 17.9181 3.11193 17.926C3.06814 18.4646 3.02436 18.8851 2.98214 19.1051C2.74913 20.3281 1.87731 20.6773 1.46993 20.9685C1.06256 21.2598 0.713834 21.7836 0.856922 22.5282C1.01565 23.3542 1.81945 23.8224 2.80777 23.8224H18.5397C22.2498 23.8224 25.257 20.8112 25.257 17.096C25.257 14.5021 23.7901 12.2519 21.6423 11.1299Z" fill="white"/>
<path d="M5.79781 15.8883C5.79781 15.8883 15.8234 14.2598 22.7667 7.88649C22.8707 7.79253 22.9684 7.70093 23.0607 7.61167C24.8348 6.07707 26.1727 3.2639 24.6605 2.97264C23.9833 2.84188 23.2718 3.00396 22.6916 3.2224C21.7643 1.4537 19.9331 0.234631 17.8125 0.180607V0.179041H3.27305C3.27305 0.179041 1.50751 0.0858685 1.00553 1.34408C0.423792 2.7996 2.28472 3.32419 2.63423 3.61545C3.01346 3.93176 3.50684 4.08131 3.50684 5.18763V10.5454C3.50684 10.5454 0 13.0485 0 14.7953C0 16.315 3.12761 16.3518 5.79781 15.8875V15.8883ZM13.0406 4.8948C15.7178 4.8948 18.0471 6.38007 19.2559 8.57236C17.033 10.1751 12.0382 13.0595 6.33264 14.3185C6.08243 13.5919 5.94559 12.8121 5.94559 12.0002C5.94559 8.07596 9.12247 4.8948 13.0414 4.8948H13.0406Z" fill="white"/>
<g clip-path="url(#clip0_966_262)">
<path d="M35.3772 15.3536L36.6265 8.64634C36.9974 6.64169 38.971 5.0188 41.0366 5.0188H48.8464C49.2865 5.0188 49.5811 5.3646 49.5031 5.79258L49.1254 7.85201C49.0457 8.27999 48.6263 8.62579 48.1862 8.62579H41.3883C41.1249 8.62579 40.8719 8.83465 40.8252 9.09143L39.7612 14.8794C39.7144 15.1362 39.8912 15.3433 40.1546 15.3433H46.9524C47.3926 15.3433 47.6871 15.6908 47.6092 16.1188L47.2245 18.2262C47.1465 18.6542 46.7254 19 46.2853 19H38.4564C36.3839 19 35.0046 17.3668 35.3772 15.3536Z" fill="white"/>
<path d="M66.183 8.64123L64.9544 15.3588C64.587 17.3703 62.6099 19 60.5392 19H52.3897C50.319 19 48.9379 17.3686 49.3053 15.3588L50.5338 8.64123C50.9012 6.63145 52.8784 5 54.9491 5H63.0985C65.1693 5 66.5503 6.63145 66.183 8.64123ZM61.8232 9.06921C61.87 8.81242 61.6932 8.60357 61.4281 8.60357H55.2922C55.0271 8.60357 54.7741 8.81071 54.7273 9.06921L53.6633 14.8811C53.6165 15.1396 53.7933 15.3468 54.0567 15.3468H60.1943C60.4595 15.3468 60.7125 15.1396 60.7592 14.8811L61.8215 9.06921H61.8232Z" fill="white"/>
<path d="M72.002 11.233L70.7232 18.2227C70.6452 18.6507 70.2242 18.9965 69.784 18.9965H67.138C66.6979 18.9965 66.4033 18.6507 66.4813 18.2227L68.7495 5.82334C68.8275 5.39537 69.2486 5.04956 69.6887 5.04956H73.0625C73.2965 5.04956 73.5027 5.14885 73.624 5.32518L77.6199 12.3406C77.7204 12.4895 77.9508 12.4484 77.982 12.2772L79.1621 5.82334C79.24 5.39537 79.6611 5.04956 80.1013 5.04956H82.7473C83.1874 5.04956 83.482 5.39537 83.4058 5.82677L81.1375 18.2261C81.0578 18.6541 80.6384 18.9999 80.1983 18.9999H77.275C77.0394 18.9999 76.8349 18.8972 76.7136 18.7243L72.3642 11.1713C72.262 11.0224 72.0315 11.0635 72.002 11.2347V11.233Z" fill="white"/>
<path d="M83.6819 15.3536L84.9312 8.64805C85.302 6.6434 87.2757 5.0188 89.3413 5.0188H97.1511C97.5912 5.0188 97.8858 5.3646 97.8078 5.79258L97.4301 7.85201C97.3504 8.27999 96.931 8.62579 96.4909 8.62579H89.693C89.4296 8.62579 89.1766 8.83465 89.1299 9.09143L88.0659 14.8794C88.0191 15.1362 88.1959 15.3433 88.4592 15.3433H95.2571C95.6973 15.3433 95.9918 15.6908 95.9139 16.1188L95.5292 18.2262C95.4512 18.6542 95.0301 19 94.59 19H86.7611C84.6886 19 83.3093 17.3668 83.6819 15.3536Z" fill="white"/>
<path d="M97.2811 18.2228L99.5546 5.7943C99.6325 5.36632 100.055 5.01709 100.495 5.01709H112.397C112.662 5.01709 112.837 5.22594 112.79 5.48273L112.308 8.11565C112.261 8.37243 112.008 8.583 111.743 8.583H103.471C103.382 8.583 103.297 8.65319 103.284 8.73878L103.02 10.1785C103.005 10.2641 103.064 10.3343 103.152 10.3343H109.804C110.069 10.3343 110.244 10.5414 110.198 10.7999L109.754 13.2171C109.707 13.4722 109.454 13.6828 109.189 13.6828H102.537C102.448 13.6828 102.363 13.753 102.35 13.8386L102.104 15.1824C102.088 15.268 102.147 15.3382 102.235 15.3382H110.508C110.773 15.3382 110.948 15.5453 110.901 15.8038L110.404 18.536C110.357 18.7911 110.104 19.0017 109.839 19.0017H97.9378C97.496 19.0017 97.2014 18.6542 97.2776 18.2262L97.2811 18.2228Z" fill="white"/>
<path d="M128.107 11.8476C127.74 13.8591 125.763 15.4888 123.692 15.4888L117.237 15.4939C117.149 15.4939 117.064 15.5641 117.05 15.6497L116.579 18.2262C116.501 18.6541 116.08 18.9999 115.639 18.9999H112.978C112.538 18.9999 112.243 18.6541 112.321 18.2262L114.593 5.80967C114.673 5.38169 115.092 5.03589 115.532 5.03589H125.603C127.674 5.03589 129.055 6.66563 128.686 8.67712L128.107 11.8493V11.8476ZM123.728 8.52819H118.516C118.428 8.52819 118.343 8.59837 118.329 8.68397L117.752 11.8407C117.736 11.928 117.795 11.9965 117.883 11.9965H123.096C123.487 11.9965 123.862 11.6867 123.933 11.3066L124.316 9.21808C124.385 8.83633 124.123 8.52476 123.73 8.52647L123.728 8.52819Z" fill="white"/>
<path d="M143.948 5.81992L143.58 7.82457C143.502 8.25255 143.081 8.59835 142.641 8.59835H138.744C138.656 8.59835 138.571 8.66854 138.557 8.75414L136.824 18.2244C136.746 18.6524 136.325 18.9999 135.885 18.9999H133.22C132.78 18.9999 132.485 18.6541 132.563 18.2261L134.296 8.75585C134.313 8.66854 134.252 8.60006 134.164 8.60006H130.267C129.827 8.60006 129.532 8.25426 129.61 7.82628L129.976 5.82163C130.054 5.39366 130.475 5.04785 130.915 5.04785H143.293C143.733 5.04785 144.026 5.39366 143.949 5.82163L143.948 5.81992Z" fill="white"/>
<path d="M142.966 18.2244L145.237 5.80625C145.317 5.37828 145.736 5.03247 146.177 5.03247H156.249C158.32 5.03247 159.7 6.66392 159.332 8.67542L159.128 9.79329C159.11 9.82582 159.114 9.85835 159.109 9.89087C158.977 10.6133 158.568 11.2655 158.015 11.7637C158.065 11.7175 158.518 12.5358 158.549 12.6128C158.679 12.9227 158.726 13.2205 158.72 13.5338C158.717 13.7889 158.679 14.0559 158.627 14.347L158.402 15.5778C158.057 17.4678 156.197 18.9999 154.253 18.9999H143.622C143.182 18.9999 142.888 18.6524 142.966 18.2244ZM147.774 15.22C147.759 15.3056 147.818 15.3758 147.906 15.3758H153.477C153.87 15.3758 154.246 15.066 154.316 14.6842L154.387 14.299C154.456 13.9173 154.196 13.6074 153.801 13.6074H148.23C148.142 13.6074 148.057 13.6759 148.043 13.7615L147.774 15.22ZM148.703 10.1357C148.687 10.223 148.746 10.2915 148.835 10.2915H154.047C154.44 10.2915 154.816 9.9816 154.886 9.59985L154.957 9.21467C155.026 8.83291 154.766 8.52306 154.371 8.52306H149.159C149.07 8.52306 148.987 8.59324 148.972 8.67884L148.703 10.1357Z" fill="white"/>
<path d="M159.801 18.2228L162.074 5.7943C162.152 5.36632 162.575 5.01709 163.015 5.01709H174.916C175.181 5.01709 175.356 5.22594 175.309 5.48273L174.828 8.11565C174.781 8.37243 174.528 8.583 174.263 8.583H165.99C165.902 8.583 165.817 8.65319 165.803 8.73878L165.54 10.1785C165.524 10.2641 165.583 10.3343 165.671 10.3343H172.324C172.589 10.3343 172.764 10.5414 172.717 10.7999L172.273 13.2171C172.227 13.4722 171.974 13.6828 171.709 13.6828H165.056C164.968 13.6828 164.883 13.753 164.869 13.8386L164.623 15.1824C164.607 15.268 164.666 15.3382 164.755 15.3382H173.027C173.292 15.3382 173.467 15.5453 173.421 15.8038L172.923 18.536C172.877 18.7911 172.624 19.0017 172.358 19.0017H160.457C160.016 19.0017 159.721 18.6542 159.797 18.2262L159.801 18.2228Z" fill="white"/>
</g>
<defs>
<clipPath id="clip0_966_262">
<rect width="140" height="14" fill="white" transform="translate(35.3164 5)"/>
</clipPath>
</defs>
</svg>
