<svg width="24" height="24" viewBox="0 0 24 24" fill="none" xmlns="http://www.w3.org/2000/svg">
<path d="M12 15C13.6569 15 15 13.6569 15 12C15 10.3431 13.6569 9 12 9C10.3431 9 9 10.3431 9 12C9 13.6569 10.3431 15 12 15Z" stroke="white" stroke-width="1.2" stroke-miterlimit="10" stroke-linecap="round" stroke-linejoin="round"/>
<path d="M2 12.8802V11.1202C2 10.0802 2.85 9.22018 3.9 9.22018C5.71 9.22018 6.45 7.94018 5.54 6.37018C5.02 5.47018 5.33 4.30018 6.24 3.78018L7.97 2.79018C8.76 2.32018 9.78 2.60018 10.25 3.39018L10.36 3.58018C11.26 5.15018 12.74 5.15018 13.65 3.58018L13.76 3.39018C14.23 2.60018 15.25 2.32018 16.04 2.79018L17.77 3.78018C18.68 4.30018 18.99 5.47018 18.47 6.37018C17.56 7.94018 18.3 9.22018 20.11 9.22018C21.15 9.22018 22.01 10.0702 22.01 11.1202V12.8802C22.01 13.9202 21.16 14.7802 20.11 14.7802C18.3 14.7802 17.56 16.0602 18.47 17.6302C18.99 18.5402 18.68 19.7002 17.77 20.2202L16.04 21.2102C15.25 21.6802 14.23 21.4002 13.76 20.6102L13.65 20.4202C12.75 18.8502 11.27 18.8502 10.36 20.4202L10.25 20.6102C9.78 21.4002 8.76 21.6802 7.97 21.2102L6.24 20.2202C5.33 19.7002 5.02 18.5302 5.54 17.6302C6.45 16.0602 5.71 14.7802 3.9 14.7802C2.85 14.7802 2 13.9202 2 12.8802Z" stroke="white" stroke-width="1.2" stroke-miterlimit="10" stroke-linecap="round" stroke-linejoin="round"/>
</svg>
